<?xml version="1.0" standalone="no"?><svg xmlns="http://www.w3.org/2000/svg" viewBox="0 0 1440 320"><path fill="#144272" fill-opacity="1" d="M0,128L20,138.7C40,149,80,171,120,165.3C160,160,200,128,240,117.3C280,107,320,117,360,117.3C400,117,440,107,480,133.3C520,160,560,224,600,234.7C640,245,680,203,720,170.7C760,139,800,117,840,112C880,107,920,117,960,117.3C1000,117,1040,107,1080,117.3C1120,128,1160,160,1200,160C1240,160,1280,128,1320,112C1360,96,1400,96,1420,96L1440,96L1440,320L1420,320C1400,320,1360,320,1320,320C1280,320,1240,320,1200,320C1160,320,1120,320,1080,320C1040,320,1000,320,960,320C920,320,880,320,840,320C800,320,760,320,720,320C680,320,640,320,600,320C560,320,520,320,480,320C440,320,400,320,360,320C320,320,280,320,240,320C200,320,160,320,120,320C80,320,40,320,20,320L0,320Z"></path></svg>